<svg id="Layer_1" data-name="Layer 1" xmlns="http://www.w3.org/2000/svg" viewBox="0 0 84.66 84.66"><defs><style>.cls-1{fill:#fff;}</style></defs><title>social</title><path class="cls-1" d="M42.26,0C51.08,0,59.9,0,68.73,0c10.06,0,15.86,5.85,15.86,15.87,0,17.34-.16,34.69.07,52C84.78,77.2,78.12,85.23,68,84.63c-3.33-.2-6.69-0.1-10,0-1.59,0-2.11-.48-2.1-2.08q0.08-14,0-28c0-1.67.68-2.06,2.18-2,3.14,0.08,6.29,0,9.43.05,1.55,0,2.18-.45,2.14-2.07-0.09-3.24-.1-6.49,0-9.73,0.06-1.81-.71-2.25-2.35-2.21-3.14.08-6.29,0-9.43,0-1.41,0-2.12-.42-2-1.9a2.49,2.49,0,0,0,0-.3c-0.08-8.25-.2-7.25,6.86-7.25,6.82,0,6.82,0,6.84-6.82,0-7.56,0-7.24-7.63-7.63C48.28,14,41.49,23.85,42.06,34.84c0.16,3.09-.7,4-3.81,3.85-6.47-.26-6.48-0.08-6.48,6.46,0,7.31,0,7.4,7.41,7.35,2.31,0,2.9.66,2.87,2.92-0.13,8.82-.15,17.65,0,26.47,0,2.46-.88,2.79-3,2.76-7.81-.11-15.62,0-23.43,0C6.55,84.58.12,78.29,0,69.15,0,58,0,46.84,0,35.68,0,28.78,0,21.89,0,15,0.09,6,5.87.14,14.88,0S33.13,0,42.26,0Z"/></svg>