<?xml version="1.0" encoding="utf-8"?>
<!-- Generator: Adobe Illustrator 19.2.0, SVG Export Plug-In . SVG Version: 6.00 Build 0)  -->
<svg version="1.1" id="Layer_1" xmlns="http://www.w3.org/2000/svg" xmlns:xlink="http://www.w3.org/1999/xlink" x="0px" y="0px"
	 viewBox="0 0 289.4 289.4" style="enable-background:new 0 0 289.4 289.4;" xml:space="preserve">
<style type="text/css">
	.st0{fill:#BAD874;}
	.st1{fill:#4D6227;}
	.st2{fill:#658033;}
	.st3{fill:#788C37;}
	.st4{fill:#69377E;}
	.st5{fill:#9559A3;}
	.st6{fill:#87489B;}
</style>
<polygon class="st0" points="126.2,288.2 133.1,216.1 116.7,286.6 128.4,215.2 107.4,284.5 123.8,213.9 98.2,281.7 119.2,212.4 
	89.3,278.3 114.8,210.6 80.6,274.4 110.5,208.4 72.1,269.9 106.4,206 64,264.8 102.4,203.4 56.3,259.2 98.6,200.4 48.9,253.1 
	95,197.3 41.9,246.5 91.7,193.9 35.4,239.5 88.5,190.3 29.4,232.1 85.6,186.4 23.9,224.3 83,182.4 18.9,216.1 80.6,178.3 
	14.4,207.6 78.6,174 10.5,198.9 76.8,169.5 7.2,189.9 75.3,165 4.6,180.7 74.1,160.4 2.5,171.4 73.2,155.7 1,161.9 72.6,150.9 
	0.2,152.4 72.4,146.1 0,142.8 72.4,141.3 0.4,133.3 72.8,136.6 1.5,123.7 73.5,131.8 3.2,114.3 74.5,127.2 5.5,105 75.8,122.6 
	8.4,95.9 77.4,118.1 12,87 79.3,113.7 16.1,78.4 81.5,109.4 20.7,70 84,105.3 25.9,62 86.7,101.4 31.6,54.3 89.7,97.6 37.9,47 
	92.9,94.1 44.5,40.2 96.4,90.8 51.7,33.8 100,87.7 59.2,27.9 103.9,84.9 67.1,22.5 107.9,82.3 75.3,17.6 112.1,80 83.9,13.3 
	116.5,78 92.7,9.6 121,76.3 101.7,6.5 125.5,74.9 111,3.9 130.2,73.8 120.3,2 134.9,73 129.8,0.7 139.7,72.5 139.4,0 144.4,72.3 
	148.9,0 149.2,72.4 158.5,0.6 154,72.9 168,1.8 158.7,73.7 177.4,3.7 163.4,74.7 186.6,6.1 167.9,76.1 195.7,9.2 172.4,77.8 
	204.5,12.9 176.8,79.8 213.1,17.1 181,82.1 221.4,21.9 185.1,84.6 229.3,27.3 188.9,87.4 236.9,33.1 192.6,90.4 244.1,39.4 
	196.1,93.7 250.8,46.2 199.4,97.2 257.1,53.5 202.4,100.9 262.9,61.1 205.1,104.9 268.1,69.1 207.6,108.9 272.9,77.4 209.9,113.2 
	277,86 211.8,117.5 280.6,94.9 213.4,122 283.6,104 214.8,126.6 286,113.3 215.8,131.3 287.7,122.7 216.6,136 288.9,132.2 
	217,140.8 289.4,141.7 217.1,145.6 289.3,151.3 216.8,150.4 288.5,160.8 216.3,155.1 287.1,170.3 215.5,159.8 285.1,179.7 
	214.3,164.5 282.5,188.9 212.8,169 279.3,197.9 211.1,173.5 275.5,206.6 209,177.8 271.1,215.2 206.7,182 266.2,223.4 204.1,186 
	260.7,231.2 201.2,189.8 254.7,238.7 198.1,193.5 248.3,245.7 194.8,196.9 241.4,252.4 191.2,200.1 234,258.5 187.5,203 
	226.3,264.2 183.5,205.7 218.2,269.3 179.4,208.2 209.8,273.9 175.1,210.3 201.2,277.9 170.7,212.2 192.2,281.4 166.2,213.8 
	183.1,284.2 161.6,215 173.8,286.4 156.9,216 164.3,288 152.2,216.6 154.8,289 147.4,217 145.3,289.4 142.6,217 135.7,289.1 
	137.8,216.7 "/>
<g>
	<rect x="55.4" y="106.6" class="st1" width="145.2" height="110.8"/>
	<path class="st2" d="M235.2,84l-34.7,22.6v110.8c0,0,36.1-31.5,36.1-36.1S235.2,84,235.2,84z"/>
	<polygon class="st3" points="235.2,84 93,84 55.4,106.6 200.6,106.6 	"/>
	<rect x="108.1" y="106.6" class="st4" width="37.2" height="110.8"/>
	<polygon class="st5" points="108.1,106.6 138.6,84 174.5,84 145.3,106.6 	"/>
	<path class="st6" d="M215,203.8c0.7-2.1,0-106.4,0-106.4l11.7-7.8V193L215,203.5"/>
	<path class="st5" d="M68.9,98.4c1.2,0.3,146.1-1,146.1-1l11.7-7.8h-143L68.9,98.4z"/>
	<ellipse class="st4" cx="147.1" cy="89.2" rx="19.1" ry="7.2"/>
	<path class="st6" d="M132.4,54.5c-2.9-1.4-6-2.6-9.1-3.5c-5.2-1.5-10.7-2.1-15.9-0.7c-8.5,2.3-16,12.1-10.2,20.4
		c5,7.1,21,7.1,14.8,7.1S94.1,85.6,100.8,93c6.7,7.4,25.8,6,35.2,0c9.3-6,17.6-15,18.6-15.2c2.7-0.6-9.5-14.6-10.4-15.4
		C140.6,59.2,136.6,56.6,132.4,54.5z"/>
	<path class="st6" d="M160.5,56.7c2.9-1.9,6-3.5,9.2-4.8c6.3-2.5,13.7-3.7,19.9-1.1c6.3,2.7,10.8,10.3,8.2,16.6
		c-2.5,6.2-9.7,8.3-15.5,10c6.8-0.6,20.3,5.1,14.2,13.7c-5.8,8.2-24.9,9.1-34.9,4.2c-10-4.8-19.2-12.7-20.3-12.9
		c-2.6-0.3,6.7-14.4,7.5-15.5C152.2,63.1,156.1,59.6,160.5,56.7z"/>
	<ellipse class="st4" cx="148.2" cy="78.4" rx="6.9" ry="8.8"/>
	<path class="st4" d="M135.6,69.5c-2.7-3.8-8.7-7.7-13.1-9c-3.7-1.1-8.1-0.5-10.9,2.2c-0.9,0.8-1.6,1.9-1.7,3.1
		c-0.2,1.2,0.3,2.5,1.3,3.1c0.6,0.4,1.4,0.5,2.1,0.6c8.6,1,16.9,2.4,25.4,4.2C138.6,73.8,135.7,69.6,135.6,69.5z"/>
	<path class="st4" d="M166.1,73.8c2.1-3.2,4.5-6.3,7.2-9c1.8-1.8,13.6-9.9,11.8-1.3c-0.4,2.1-2.4,3.6-4.3,4.6
		C178.2,69.4,167.4,71.9,166.1,73.8z"/>
</g>
</svg>
