<svg id="Layer_1" data-name="Layer 1" xmlns="http://www.w3.org/2000/svg" viewBox="0 0 84.66 84.66"><defs><style>.cls-1{fill:#fff;}</style></defs><title>social</title><path class="cls-1" d="M42.43,1.19a41.74,41.74,0,0,1,.26,83.47C19.06,84.72.9,66.5,0.57,43,0.21,18.09,22,.47,42.43,1.19Zm24.73,30.5-2.78-.21c0.35-1.56,2-2.26,1.68-4.29-3.22,2.52-6.09,1.33-9.08,0A9.09,9.09,0,0,0,44.07,35c-0.13,2.93-1.34,3.1-3.56,2.64a27.92,27.92,0,0,1-14.32-7.51c-0.6-.59-1.09-1.75-2.14-1.34s-0.94,1.52-1.1,2.38c-0.65,3.48.9,6.29,2.86,9l-0.23.23c-2.79-.61-3.12.57-2.2,2.88,1.08,2.68,3.17,4.34,5.64,5.83-2.79.83-2.9,1.14-1.37,3.29s4.13,3.27,7,4.14c-3.83,3.1-8.17,3.61-12.89,4.09,14.09,8.73,35.91,3.06,40.78-17.35,1-4.14,1-8.53,4.62-11.58l0.09-.25Z"/></svg>